<svg xmlns="http://www.w3.org/2000/svg" viewBox="0 0 120 120" role="img" aria-label="Bestlink College of the Philippines SMS 2">
  <defs>
    <linearGradient id="ring" x1="12%" y1="8%" x2="88%" y2="92%">
      <stop offset="0%" stop-color="#60a5fa"/>
      <stop offset="45%" stop-color="#1d4ed8"/>
      <stop offset="100%" stop-color="#0b2a6b"/>
    </linearGradient>
    <linearGradient id="face" x1="30%" y1="0%" x2="70%" y2="100%">
      <stop offset="0%" stop-color="#ffffff"/>
      <stop offset="100%" stop-color="#e8f1ff"/>
    </linearGradient>
    <linearGradient id="shield" x1="20%" y1="0%" x2="80%" y2="100%">
      <stop offset="0%" stop-color="#1e40af"/>
      <stop offset="100%" stop-color="#0b2a6b"/>
    </linearGradient>
    <linearGradient id="field" x1="30%" y1="10%" x2="70%" y2="90%">
      <stop offset="0%" stop-color="#7dd3fc"/>
      <stop offset="100%" stop-color="#38bdf8"/>
    </linearGradient>
  </defs>

  <circle cx="60" cy="60" r="56" fill="url(#ring)"/>
  <circle cx="60" cy="60" r="49.5" fill="url(#face)"/>
  <path d="M22 48c0-1 8-10 38-10s38 9 38 10c0 5-8 7-16 5-9-2-21-3.5-22-3.5s-13 1.5-22 3.5c-8 2-16 0-16-5z" fill="#fff" opacity=".6"/>

  <g transform="translate(60 52)">
    <path d="M0-24c9.5 2.6 18.5 3.8 24 4.6v16.8c0 12.8-9.2 22.2-24 28.6C-14.8 19.6-24 10.2-24-2.6V-19.4C-18.5-20.2-9.5-21.4 0-24z" fill="url(#shield)"/>
    <path d="M0-24c9.5 2.6 18.5 3.8 24 4.6v16.8c0 12.8-9.2 22.2-24 28.6C-14.8 19.6-24 10.2-24-2.6V-19.4C-18.5-20.2-9.5-21.4 0-24z" fill="none" stroke="#dc2626" stroke-width="1.6"/>
    <path d="M0-18.2c7.4 2 14.2 2.9 18.8 3.5v13.2c0 9.6-6.9 16.6-18.8 21.4-11.9-4.8-18.8-11.8-18.8-21.4V-14.7c4.6-.6 11.4-1.5 18.8-3.5z" fill="url(#field)"/>
    <path d="M-8.5-1.5c5.8-8.2 17.2-8.2 23 0" fill="none" stroke="#fff" stroke-width="3.1" stroke-linecap="round"/>
    <path d="M-11.5 6c7.6-9.4 21.4-9.4 29 0" fill="none" stroke="#ef4444" stroke-width="2.5" stroke-linecap="round"/>
    <circle cx="-1.2" cy="1.2" r="2.5" fill="#dc2626"/>
    <circle cx="-1.2" cy="1.2" r="1.1" fill="#fff"/>
  </g>

  <text x="60" y="99" text-anchor="middle" font-family="Segoe UI, Arial, sans-serif" font-size="11.5" font-weight="800" fill="#0b2a6b" letter-spacing="1.5">SMS 2</text>
</svg>
